<svg xmlns="http://www.w3.org/2000/svg" viewBox="0 0 300 300">
  <defs>
    <!-- Realistic rajma (kidney bean) gradient -->
    <radialGradient id="rajmaGrad" cx="0.25" cy="0.3" r="0.8">
      <stop offset="0%" stop-color="#ffcdd2"/>
      <stop offset="30%" stop-color="#e57373"/>
      <stop offset="60%" stop-color="#d32f2f"/>
      <stop offset="100%" stop-color="#b71c1c"/>
    </radialGradient>
    <!-- Dark red rajma gradient -->
    <radialGradient id="darkRajmaGrad" cx="0.25" cy="0.3" r="0.8">
      <stop offset="0%" stop-color="#ef9a9a"/>
      <stop offset="40%" stop-color="#f44336"/>
      <stop offset="70%" stop-color="#c62828"/>
      <stop offset="100%" stop-color="#8e24aa"/>
    </radialGradient>
    <!-- Shadow -->
    <radialGradient id="shadowGrad" cx="0.5" cy="0.5" r="0.5">
      <stop offset="0%" stop-color="#00000020"/>
      <stop offset="100%" stop-color="#00000000"/>
    </radialGradient>
    <!-- Kidney bean texture pattern -->
    <pattern id="beanTexture" patternUnits="userSpaceOnUse" width="2" height="2">
      <circle cx="1" cy="1" r="0.3" fill="#ffffff15"/>
    </pattern>
  </defs>
  
  <!-- Background -->
  <rect width="300" height="300" fill="#fafafa" rx="15"/>
  
  <!-- Multiple realistic kidney beans -->
  <!-- Kidney beans have a distinctive curved shape -->
  
  <!-- Large kidney beans -->
  <g transform="translate(80,70) rotate(15)">
    <path d="M-8,-4 C-6,-8 6,-8 8,-2 C10,2 8,6 4,6 C0,8 -4,8 -6,4 C-8,0 -8,-4 -8,-4 Z" 
          fill="url(#rajmaGrad)" stroke="#b71c1c" stroke-width="0.3"/>
    <path d="M-8,-4 C-6,-8 6,-8 8,-2 C10,2 8,6 4,6 C0,8 -4,8 -6,4 C-8,0 -8,-4 -8,-4 Z" 
          fill="url(#beanTexture)"/>
  </g>
  
  <g transform="translate(140,85) rotate(-20)">
    <path d="M-7.5,-3.5 C-5.5,-7.5 5.5,-7.5 7.5,-1.5 C9.5,1.5 7.5,5.5 3.5,5.5 C-0.5,7.5 -3.5,7.5 -5.5,3.5 C-7.5,-0.5 -7.5,-3.5 -7.5,-3.5 Z" 
          fill="url(#rajmaGrad)" stroke="#b71c1c" stroke-width="0.3"/>
    <path d="M-7.5,-3.5 C-5.5,-7.5 5.5,-7.5 7.5,-1.5 C9.5,1.5 7.5,5.5 3.5,5.5 C-0.5,7.5 -3.5,7.5 -5.5,3.5 C-7.5,-0.5 -7.5,-3.5 -7.5,-3.5 Z" 
          fill="url(#beanTexture)"/>
  </g>
  
  <g transform="translate(200,75) rotate(35)">
    <path d="M-8.2,-4.2 C-6.2,-8.2 6.2,-8.2 8.2,-2.2 C10.2,1.8 8.2,5.8 4.2,5.8 C0.2,7.8 -3.8,7.8 -5.8,3.8 C-7.8,-0.2 -7.8,-4.2 -8.2,-4.2 Z" 
          fill="url(#darkRajmaGrad)" stroke="#8e24aa" stroke-width="0.3"/>
    <path d="M-8.2,-4.2 C-6.2,-8.2 6.2,-8.2 8.2,-2.2 C10.2,1.8 8.2,5.8 4.2,5.8 C0.2,7.8 -3.8,7.8 -5.8,3.8 C-7.8,-0.2 -7.8,-4.2 -8.2,-4.2 Z" 
          fill="url(#beanTexture)"/>
  </g>
  
  <g transform="translate(50,120) rotate(-25)">
    <path d="M-7.8,-3.8 C-5.8,-7.8 5.8,-7.8 7.8,-1.8 C9.8,1.2 7.8,5.2 3.8,5.2 C-0.2,7.2 -3.2,7.2 -5.2,3.2 C-7.2,-0.8 -7.8,-3.8 -7.8,-3.8 Z" 
          fill="url(#rajmaGrad)" stroke="#b71c1c" stroke-width="0.3"/>
    <path d="M-7.8,-3.8 C-5.8,-7.8 5.8,-7.8 7.8,-1.8 C9.8,1.2 7.8,5.2 3.8,5.2 C-0.2,7.2 -3.2,7.2 -5.2,3.2 C-7.2,-0.8 -7.8,-3.8 -7.8,-3.8 Z" 
          fill="url(#beanTexture)"/>
  </g>
  
  <g transform="translate(110,135) rotate(50)">
    <path d="M-8,-4 C-6,-8 6,-8 8,-2 C10,2 8,6 4,6 C0,8 -4,8 -6,4 C-8,0 -8,-4 -8,-4 Z" 
          fill="url(#darkRajmaGrad)" stroke="#8e24aa" stroke-width="0.3"/>
    <path d="M-8,-4 C-6,-8 6,-8 8,-2 C10,2 8,6 4,6 C0,8 -4,8 -6,4 C-8,0 -8,-4 -8,-4 Z" 
          fill="url(#beanTexture)"/>
  </g>
  
  <g transform="translate(170,125) rotate(-10)">
    <path d="M-7.6,-3.6 C-5.6,-7.6 5.6,-7.6 7.6,-1.6 C9.6,1.4 7.6,5.4 3.6,5.4 C-0.4,7.4 -3.4,7.4 -5.4,3.4 C-7.4,-0.6 -7.6,-3.6 -7.6,-3.6 Z" 
          fill="url(#rajmaGrad)" stroke="#b71c1c" stroke-width="0.3"/>
    <path d="M-7.6,-3.6 C-5.6,-7.6 5.6,-7.6 7.6,-1.6 C9.6,1.4 7.6,5.4 3.6,5.4 C-0.4,7.4 -3.4,7.4 -5.4,3.4 C-7.4,-0.6 -7.6,-3.6 -7.6,-3.6 Z" 
          fill="url(#beanTexture)"/>
  </g>
  
  <g transform="translate(230,140) rotate(20)">
    <path d="M-8.1,-4.1 C-6.1,-8.1 6.1,-8.1 8.1,-2.1 C10.1,1.9 8.1,5.9 4.1,5.9 C0.1,7.9 -3.9,7.9 -5.9,3.9 C-7.9,-0.1 -8.1,-4.1 -8.1,-4.1 Z" 
          fill="url(#darkRajmaGrad)" stroke="#8e24aa" stroke-width="0.3"/>
    <path d="M-8.1,-4.1 C-6.1,-8.1 6.1,-8.1 8.1,-2.1 C10.1,1.9 8.1,5.9 4.1,5.9 C0.1,7.9 -3.9,7.9 -5.9,3.9 C-7.9,-0.1 -8.1,-4.1 -8.1,-4.1 Z" 
          fill="url(#beanTexture)"/>
  </g>
  
  <g transform="translate(75,175) rotate(-35)">
    <path d="M-7.7,-3.7 C-5.7,-7.7 5.7,-7.7 7.7,-1.7 C9.7,1.3 7.7,5.3 3.7,5.3 C-0.3,7.3 -3.3,7.3 -5.3,3.3 C-7.3,-0.7 -7.7,-3.7 -7.7,-3.7 Z" 
          fill="url(#rajmaGrad)" stroke="#b71c1c" stroke-width="0.3"/>
    <path d="M-7.7,-3.7 C-5.7,-7.7 5.7,-7.7 7.7,-1.7 C9.7,1.3 7.7,5.3 3.7,5.3 C-0.3,7.3 -3.3,7.3 -5.3,3.3 C-7.3,-0.7 -7.7,-3.7 -7.7,-3.7 Z" 
          fill="url(#beanTexture)"/>
  </g>
  
  <g transform="translate(145,190) rotate(25)">
    <path d="M-8.3,-4.3 C-6.3,-8.3 6.3,-8.3 8.3,-2.3 C10.3,1.7 8.3,5.7 4.3,5.7 C0.3,7.7 -3.7,7.7 -5.7,3.7 C-7.7,-0.3 -8.3,-4.3 -8.3,-4.3 Z" 
          fill="url(#darkRajmaGrad)" stroke="#8e24aa" stroke-width="0.3"/>
    <path d="M-8.3,-4.3 C-6.3,-8.3 6.3,-8.3 8.3,-2.3 C10.3,1.7 8.3,5.7 4.3,5.7 C0.3,7.7 -3.7,7.7 -5.7,3.7 C-7.7,-0.3 -8.3,-4.3 -8.3,-4.3 Z" 
          fill="url(#beanTexture)"/>
  </g>
  
  <g transform="translate(215,180) rotate(-15)">
    <path d="M-7.9,-3.9 C-5.9,-7.9 5.9,-7.9 7.9,-1.9 C9.9,1.1 7.9,5.1 3.9,5.1 C-0.1,7.1 -3.1,7.1 -5.1,3.1 C-7.1,-0.9 -7.9,-3.9 -7.9,-3.9 Z" 
          fill="url(#rajmaGrad)" stroke="#b71c1c" stroke-width="0.3"/>
    <path d="M-7.9,-3.9 C-5.9,-7.9 5.9,-7.9 7.9,-1.9 C9.9,1.1 7.9,5.1 3.9,5.1 C-0.1,7.1 -3.1,7.1 -5.1,3.1 C-7.1,-0.9 -7.9,-3.9 -7.9,-3.9 Z" 
          fill="url(#beanTexture)"/>
  </g>
  
  <!-- Smaller beans -->
  <g transform="translate(120,60) rotate(40)">
    <path d="M-6,-3 C-4,-6 4,-6 6,-1 C8,1 6,4 3,4 C0,6 -3,6 -4,3 C-6,0 -6,-3 -6,-3 Z" 
          fill="url(#rajmaGrad)" stroke="#b71c1c" stroke-width="0.2"/>
  </g>
  
  <g transform="translate(180,110) rotate(-30)">
    <path d="M-5.5,-2.5 C-3.5,-5.5 3.5,-5.5 5.5,-0.5 C7.5,1.5 5.5,3.5 2.5,3.5 C-0.5,5.5 -2.5,5.5 -3.5,2.5 C-5.5,0.5 -5.5,-2.5 -5.5,-2.5 Z" 
          fill="url(#darkRajmaGrad)" stroke="#8e24aa" stroke-width="0.2"/>
  </g>
  
  <!-- Shadows for depth -->
  <ellipse cx="82" cy="73" rx="6" ry="3" fill="url(#shadowGrad)" transform="rotate(15 82 73)"/>
  <ellipse cx="142" cy="88" rx="5.5" ry="2.8" fill="url(#shadowGrad)" transform="rotate(-20 142 88)"/>
  <ellipse cx="202" cy="78" rx="6.2" ry="3.2" fill="url(#shadowGrad)" transform="rotate(35 202 78)"/>
  
  <!-- Central focus area -->
  <g transform="translate(150,150)">
    <path d="M-10,-5 C-8,-10 8,-10 10,-3 C12,2 10,7 5,7 C0,10 -5,10 -7,5 C-10,0 -10,-5 -10,-5 Z" 
          fill="url(#rajmaGrad)" stroke="#b71c1c" stroke-width="0.4" transform="rotate(10)"/>
    <path d="M-10,-5 C-8,-10 8,-10 10,-3 C12,2 10,7 5,7 C0,10 -5,10 -7,5 C-10,0 -10,-5 -10,-5 Z" 
          fill="url(#beanTexture)" transform="rotate(10)"/>
    <ellipse cx="2" cy="1" rx="7" ry="4" fill="url(#shadowGrad)" transform="rotate(10)"/>
  </g>
</svg>