<svg xmlns="http://www.w3.org/2000/svg" viewBox="0 0 200 200">
  <defs>
    <radialGradient id="rajmaGrad" cx="50%" cy="30%" r="70%">
      <stop offset="0%" stop-color="#e57373"/>
      <stop offset="100%" stop-color="#b71c1c"/>
    </radialGradient>
  </defs>
  <rect width="200" height="200" fill="#f5f5f5" rx="10"/>
  <!-- Kidney bean shapes -->
  <ellipse cx="50" cy="60" rx="10" ry="6" fill="url(#rajmaGrad)" transform="rotate(15 50 60)"/>
  <ellipse cx="80" cy="45" rx="9" ry="5" fill="url(#rajmaGrad)" transform="rotate(25 80 45)"/>
  <ellipse cx="120" cy="55" rx="10" ry="6" fill="url(#rajmaGrad)" transform="rotate(-10 120 55)"/>
  <ellipse cx="150" cy="40" rx="9" ry="5" fill="url(#rajmaGrad)" transform="rotate(30 150 40)"/>
  <ellipse cx="40" cy="90" rx="9" ry="5" fill="url(#rajmaGrad)" transform="rotate(-20 40 90)"/>
  <ellipse cx="75" cy="85" rx="10" ry="6" fill="url(#rajmaGrad)" transform="rotate(10 75 85)"/>
  <ellipse cx="110" cy="95" rx="9" ry="5" fill="url(#rajmaGrad)" transform="rotate(35 110 95)"/>
  <ellipse cx="145" cy="80" rx="10" ry="6" fill="url(#rajmaGrad)" transform="rotate(-15 145 80)"/>
  <ellipse cx="60" cy="125" rx="10" ry="6" fill="url(#rajmaGrad)" transform="rotate(20 60 125)"/>
  <ellipse cx="95" cy="115" rx="9" ry="5" fill="url(#rajmaGrad)" transform="rotate(-25 95 115)"/>
  <ellipse cx="130" cy="120" rx="10" ry="6" fill="url(#rajmaGrad)" transform="rotate(5 130 120)"/>
  <ellipse cx="165" cy="110" rx="9" ry="5" fill="url(#rajmaGrad)" transform="rotate(40 165 110)"/>
  <ellipse cx="45" cy="155" rx="9" ry="5" fill="url(#rajmaGrad)" transform="rotate(-30 45 155)"/>
  <ellipse cx="85" cy="150" rx="10" ry="6" fill="url(#rajmaGrad)" transform="rotate(15 85 150)"/>
  <ellipse cx="125" cy="160" rx="9" ry="5" fill="url(#rajmaGrad)" transform="rotate(25 125 160)"/>
  <ellipse cx="155" cy="145" rx="10" ry="6" fill="url(#rajmaGrad)" transform="rotate(-5 155 145)"/>
  <text x="100" y="190" text-anchor="middle" font-family="Arial, sans-serif" font-size="12" fill="#b71c1c" font-weight="bold">Rajma</text>
</svg>