<svg xmlns="http://www.w3.org/2000/svg" viewBox="0 0 300 300">
  <defs>
    <!-- Realistic urad dal gradient - black exterior, white interior -->
    <radialGradient id="uradBlackGrad" cx="0.3" cy="0.2" r="0.8">
      <stop offset="0%" stop-color="#424242"/>
      <stop offset="60%" stop-color="#212121"/>
      <stop offset="100%" stop-color="#000000"/>
    </radialGradient>
    <!-- White interior gradient -->
    <radialGradient id="uradWhiteGrad" cx="0.3" cy="0.2" r="0.8">
      <stop offset="0%" stop-color="#ffffff"/>
      <stop offset="50%" stop-color="#f5f5f5"/>
      <stop offset="100%" stop-color="#e0e0e0"/>
    </radialGradient>
    <!-- Mixed gradient for partially peeled -->
    <radialGradient id="uradMixedGrad" cx="0.3" cy="0.2" r="0.8">
      <stop offset="0%" stop-color="#ffffff"/>
      <stop offset="30%" stop-color="#e0e0e0"/>
      <stop offset="70%" stop-color="#424242"/>
      <stop offset="100%" stop-color="#212121"/>
    </radialGradient>
    <!-- Shadow -->
    <radialGradient id="shadowGrad" cx="0.5" cy="0.5" r="0.5">
      <stop offset="0%" stop-color="#00000020"/>
      <stop offset="100%" stop-color="#00000000"/>
    </radialGradient>
  </defs>
  
  <!-- Background -->
  <rect width="300" height="300" fill="#fafafa" rx="15"/>
  
  <!-- Multiple realistic urad dal pieces -->
  <!-- Whole black lentils -->
  <ellipse cx="70" cy="65" rx="7.5" ry="5.2" fill="url(#uradBlackGrad)" transform="rotate(10 70 65)"/>
  <ellipse cx="130" cy="80" rx="7" ry="4.8" fill="url(#uradBlackGrad)" transform="rotate(-25 130 80)"/>
  <ellipse cx="190" cy="70" rx="7.8" ry="5.5" fill="url(#uradBlackGrad)" transform="rotate(35 190 70)"/>
  <ellipse cx="50" cy="115" rx="7.2" ry="5" fill="url(#uradBlackGrad)" transform="rotate(-30 50 115)"/>
  <ellipse cx="240" cy="95" rx="7.6" ry="5.3" fill="url(#uradBlackGrad)" transform="rotate(50 240 95)"/>
  
  <!-- White/peeled lentils -->
  <ellipse cx="110" cy="60" rx="7.3" ry="5.1" fill="url(#uradWhiteGrad)" transform="rotate(45 110 60)"/>
  <ellipse cx="170" cy="120" rx="7.1" ry="4.9" fill="url(#uradWhiteGrad)" transform="rotate(-15 170 120)"/>
  <ellipse cx="220" cy="135" rx="7.7" ry="5.4" fill="url(#uradWhiteGrad)" transform="rotate(25 220 135)"/>
  <ellipse cx="80" cy="170" rx="7.4" ry="5.2" fill="url(#uradWhiteGrad)" transform="rotate(-40 80 170)"/>
  <ellipse cx="200" cy="175" rx="7.2" ry="5" fill="url(#uradWhiteGrad)" transform="rotate(15 200 175)"/>
  
  <!-- Partially peeled/mixed -->
  <ellipse cx="150" cy="85" rx="7.5" ry="5.2" fill="url(#uradMixedGrad)" transform="rotate(60 150 85)"/>
  <ellipse cx="90" cy="130" rx="7.3" ry="5.1" fill="url(#uradMixedGrad)" transform="rotate(-45 90 130)"/>
  <ellipse cx="180" cy="155" rx="7.6" ry="5.3" fill="url(#uradMixedGrad)" transform="rotate(30 180 155)"/>
  
  <!-- Split white lentils -->
  <g transform="translate(120,110) rotate(20)">
    <ellipse cx="0" cy="0" rx="7.5" ry="5.2" fill="url(#uradWhiteGrad)"/>
    <line x1="-6.5" y1="0" x2="6.5" y2="0" stroke="#bdbdbd" stroke-width="0.6"/>
  </g>
  
  <g transform="translate(160,190) rotate(-30)">
    <ellipse cx="0" cy="0" rx="7.8" ry="5.5" fill="url(#uradWhiteGrad)"/>
    <line x1="-6.8" y1="0" x2="6.8" y2="0" stroke="#bdbdbd" stroke-width="0.6"/>
  </g>
  
  <g transform="translate(210,110) rotate(40)">
    <ellipse cx="0" cy="0" rx="7.2" ry="5" fill="url(#uradWhiteGrad)"/>
    <line x1="-6.2" y1="0" x2="6.2" y2="0" stroke="#bdbdbd" stroke-width="0.6"/>
  </g>
  
  <!-- Small broken pieces -->
  <ellipse cx="100" cy="200" rx="5" ry="3.5" fill="url(#uradWhiteGrad)" transform="rotate(65 100 200)"/>
  <ellipse cx="250" cy="160" rx="4.8" ry="3.3" fill="url(#uradBlackGrad)" transform="rotate(-20 250 160)"/>
  <ellipse cx="60" cy="200" rx="5.2" ry="3.6" fill="url(#uradMixedGrad)" transform="rotate(40 60 200)"/>
  <ellipse cx="140" cy="210" rx="4.5" ry="3.1" fill="url(#uradWhiteGrad)" transform="rotate(-55 140 210)"/>
  
  <!-- Very small fragments -->
  <ellipse cx="230" cy="60" rx="3.5" ry="2.5" fill="url(#uradBlackGrad)" transform="rotate(75 230 60)"/>
  <ellipse cx="40" cy="90" rx="3.8" ry="2.7" fill="url(#uradWhiteGrad)" transform="rotate(-10 40 90)"/>
  <ellipse cx="260" cy="120" rx="3.2" ry="2.3" fill="url(#uradMixedGrad)" transform="rotate(45 260 120)"/>
  
  <!-- Shadows for depth -->
  <ellipse cx="72" cy="68" rx="5.5" ry="3.2" fill="url(#shadowGrad)" transform="rotate(10 72 68)"/>
  <ellipse cx="132" cy="83" rx="5" ry="2.8" fill="url(#shadowGrad)" transform="rotate(-25 132 83)"/>
  <ellipse cx="192" cy="73" rx="5.8" ry="3.5" fill="url(#shadowGrad)" transform="rotate(35 192 73)"/>
  
  <!-- Central focus area - showing the characteristic black and white contrast -->
  <g transform="translate(150,150)">
    <!-- Black lentil -->
    <ellipse cx="-8" cy="0" rx="9" ry="6.5" fill="url(#uradBlackGrad)" transform="rotate(10)"/>
    <!-- White/split lentil -->
    <ellipse cx="8" cy="0" rx="9" ry="6.5" fill="url(#uradWhiteGrad)" transform="rotate(-10)"/>
    <line x1="0" y1="-5.5" x2="16" y2="-5.5" stroke="#bdbdbd" stroke-width="0.8" transform="rotate(-10)"/>
    <ellipse cx="2" cy="1" rx="7" ry="5" fill="url(#shadowGrad)"/>
  </g>
</svg>